<svg xmlns="http://www.w3.org/2000/svg" version="1.1" xmlns:xlink="http://www.w3.org/1999/xlink" xmlns:svgjs="http://svgjs.dev/svgjs" width="1500" height="1500" viewBox="0 0 1500 1500"><rect width="1500" height="1500" fill="#ffffff"></rect><g transform="matrix(0.6666666666666666,0,0,0.6666666666666666,249.39393939393938,587.6022701302775)"><svg viewBox="0 0 396 128" data-background-color="#ffffff" preserveAspectRatio="xMidYMid meet" height="484" width="1500" xmlns="http://www.w3.org/2000/svg" xmlns:xlink="http://www.w3.org/1999/xlink"><g id="tight-bounds" transform="matrix(1,0,0,1,0.2400000000000091,0.42223994831968525)"><svg viewBox="0 0 395.52 127.1555201033606" height="127.1555201033606" width="395.52"><g><svg viewBox="0 0 395.52 127.1555201033606" height="127.1555201033606" width="395.52"><g><svg viewBox="0 0 395.52 127.1555201033606" height="127.1555201033606" width="395.52"><g id="textblocktransform"><svg viewBox="0 0 395.52 127.1555201033606" height="127.1555201033606" width="395.52" id="textblock"><g><rect width="106.79039999999999" height="8.121455132457468" y="115.1758309693029" fill="#261f20" data-fill-palette-color="tertiary"></rect><rect width="106.79039999999999" height="8.121455132457468" y="115.1758309693029" x="288.7296" fill="#261f20" data-fill-palette-color="tertiary"></rect></g><g><svg viewBox="0 0 395.52 90.057243217814" height="90.057243217814" width="395.52"><g transform="matrix(1,0,0,1,0,0)"><svg width="395.52" viewBox="2.15 -34.99 155.68 35.45" height="90.057243217814" data-palette-color="#000000"><path d="M33.3-1.78L33.3-1.78 33.35-3.47 33.35-7.32Q29.91-1.59 23.19-0.02L23.19-0.02Q21.07 0.46 18.25 0.46 15.43 0.46 12.41-0.71 9.4-1.88 7.13-4.1L7.13-4.1Q2.15-8.94 2.15-16.82L2.15-16.82Q2.15-24.37 7.42-29.59L7.42-29.59Q12.92-34.99 21.22-34.99L21.22-34.99Q25.42-34.99 28.81-33.42L28.81-33.42Q30.88-32.5 31.74-31.7 32.59-30.91 32.59-30.43 32.59-29.96 32.3-29.61 32.01-29.27 31.48-29.27 30.96-29.27 30.32-29.83L30.32-29.83Q28.44-31.49 27.01-32.01 25.59-32.52 24.73-32.74 23.88-32.96 23.19-33.06L23.19-33.06Q22.14-33.2 20.7-33.2 19.26-33.2 18.04-32.96L18.04-32.96 18.04-1.37Q18.31-1.34 18.58-1.34L18.58-1.34 19.07-1.34Q26.32-1.34 30.81-6.84L30.81-6.84Q32.35-8.72 33.35-11.28L33.35-11.28 33.35-13.62Q33.35-13.62 33.23-15.82L33.23-15.82Q33.23-17.11 34.25-17.11L34.25-17.11Q34.79-17.11 35.08-16.76 35.38-16.41 35.38-15.89L35.38-15.89 35.23-13.87 35.23-4.79 35.38-1Q35.38-0.42 35.05-0.07 34.72 0.27 34.28 0.27L34.28 0.27Q33.2 0.27 33.2-0.85L33.2-0.85Q33.2-1.15 33.3-1.78ZM60.08 0L60.08-1.61Q56.96 0.46 53.15 0.46L53.15 0.46Q48.09 0.46 45.04-2.08L45.04-2.08Q41.87-4.69 41.87-9.33L41.87-9.33Q41.87-13.43 45.02-16.06L45.02-16.06Q48.24-18.73 53.49-18.73L53.49-18.73Q57-18.73 60.08-17.38L60.08-17.38 60.08-24.1Q57.86-24.73 56.16-24.73 54.47-24.73 53.29-24.58 52.12-24.44 51.07-24.15L51.07-24.15Q48.8-23.51 47.63-22.44L47.63-22.44Q46.95-21.8 46.38-21.8 45.82-21.8 45.53-22.08 45.24-22.36 45.24-22.71 45.24-23.05 45.36-23.33 45.48-23.61 45.82-23.9L45.82-23.9Q46.56-24.54 48.26-25.17L48.26-25.17Q51.8-26.51 55.37-26.51L55.37-26.51Q66.21-26.51 69.21-21.34L69.21-21.34Q70.53-19.04 70.53-15.31L70.53-15.31 70.53 0 60.08 0ZM60.08-3.71L60.08-15.48Q57-16.97 53.95-16.97L53.95-16.97Q53.46-16.97 53.02-16.89L53.02-16.89 53.02-1.37Q53.15-1.34 53.29-1.34 53.44-1.34 53.59-1.34L53.59-1.34Q56.93-1.34 60.08-3.71L60.08-3.71ZM106.44-19.34L106.44-19.34Q106.49-18.75 106.49-18.16L106.49-18.16 106.49 0 96.02 0 96.02-23.68Q95.75-23.8 95.38-23.8L95.38-23.8 94.6-23.8Q92.7-23.8 90.16-21.19L90.16-21.19Q89.37-20.39 88.67-19.41L88.67-19.41 88.67 0 78.17 0 78.17-26.07 88.67-26.07 88.67-22.14Q92.79-26.51 97.9-26.51L97.9-26.51Q104.49-26.51 106.03-21.63L106.03-21.63Q108.12-24.05 110.65-25.28 113.18-26.51 115.74-26.51L115.74-26.51Q120.11-26.51 122.21-24.44 124.31-22.36 124.31-18.16L124.31-18.16 124.31 0 113.84 0 113.84-23.71Q113.62-23.8 112.74-23.8 111.86-23.8 111.12-23.47 110.37-23.14 109.59-22.56L109.59-22.56Q107.88-21.31 106.44-19.34ZM154.95-5.93L154.95-5.93Q155.9-5.93 155.9-5.05L155.9-5.05Q155.9-4.39 155.05-3.49L155.05-3.49Q151.19 0.46 144.47 0.46L144.47 0.46Q138.44 0.46 134.32-3.17L134.32-3.17Q130.05-6.96 130.05-12.74L130.05-12.74Q130.05-18.65 133.9-22.46L133.9-22.46Q137.98-26.51 144.74-26.51L144.74-26.51Q150.16-26.51 153.85-23.22L153.85-23.22Q157.83-19.68 157.83-13.92L157.83-13.92Q157.83-13.09 157.78-12.16L157.78-12.16 141.67-12.16 141.67-1.68Q143.33-1.34 145.4-1.34L145.4-1.34Q149.8-1.34 152.9-4.25L152.9-4.25Q153.53-4.88 153.8-5.25L153.8-5.25Q154.36-5.93 154.95-5.93ZM148.43-13.94L148.43-24.27Q146.84-24.73 144.84-24.73 142.84-24.73 141.67-24.46L141.67-24.46 141.67-13.94 148.43-13.94Z" opacity="1" transform="matrix(1,0,0,1,0,0)" fill="#000000" class="wordmark-text-0" data-fill-palette-color="primary" id="text-0"></path></svg></g></svg></g><g transform="matrix(1,0,0,1,106.79039999999999,111.31759696770266)"><svg viewBox="0 0 181.9392 15.83792313565793" height="15.83792313565793" width="181.9392"><g transform="matrix(1,0,0,1,8,0)"><svg width="165.9392" viewBox="4.7 -37 392.86 37.5" height="15.83792313565793" data-palette-color="#000000"><path d="M6.25 0L6.25 0Q5.55 0 5.13-0.45 4.7-0.9 4.7-1.5L4.7-1.5 4.7-33.5Q4.7-34.1 5.15-34.55 5.6-35 6.2-35L6.2-35 24.4-35Q25.05-35 25.48-34.58 25.9-34.15 25.9-33.5L25.9-33.5Q25.9-32.9 25.48-32.48 25.05-32.05 24.4-32.05L24.4-32.05 7.55-32.05 7.75-32.35 7.75-19.05 7.5-19.5 22.15-19.5Q22.8-19.5 23.23-19.07 23.65-18.65 23.65-18.05L23.65-18.05Q23.65-17.4 23.23-17 22.8-16.6 22.15-16.6L22.15-16.6 7.4-16.6 7.75-17 7.75-1.5Q7.75-0.9 7.33-0.45 6.9 0 6.25 0ZM35.15-24.5L35.15-1.5Q35.15-0.9 34.7-0.45 34.25 0 33.65 0L33.65 0Q33 0 32.57-0.45 32.15-0.9 32.15-1.5L32.15-1.5 32.15-24.5Q32.15-25.1 32.57-25.55 33-26 33.65-26L33.65-26Q34.3-26 34.72-25.55 35.15-25.1 35.15-24.5L35.15-24.5ZM33.65-29.35L33.65-29.35Q32.6-29.35 32.07-29.83 31.55-30.3 31.55-31.2L31.55-31.2 31.55-31.7Q31.55-32.6 32.12-33.08 32.7-33.55 33.7-33.55L33.7-33.55Q34.65-33.55 35.17-33.08 35.7-32.6 35.7-31.7L35.7-31.7 35.7-31.2Q35.7-30.3 35.17-29.83 34.65-29.35 33.65-29.35ZM55-26.15L55-26.15Q58.3-26.15 60.27-24.83 62.25-23.5 63.12-21.23 64-18.95 64-16.2L64-16.2 64-1.5Q64-0.9 63.55-0.45 63.1 0 62.5 0L62.5 0Q61.8 0 61.4-0.45 61-0.9 61-1.5L61-1.5 61-16.05Q61-18.05 60.35-19.7 59.7-21.35 58.22-22.35 56.75-23.35 54.35-23.35L54.35-23.35Q52.2-23.35 50.27-22.35 48.35-21.35 47.15-19.7 45.95-18.05 45.95-16.05L45.95-16.05 45.95-1.5Q45.95-0.9 45.5-0.45 45.05 0 44.45 0L44.45 0Q43.75 0 43.35-0.45 42.95-0.9 42.95-1.5L42.95-1.5 42.95-23.9Q42.95-24.5 43.37-24.95 43.8-25.4 44.45-25.4L44.45-25.4Q45.1-25.4 45.52-24.95 45.95-24.5 45.95-23.9L45.95-23.9 45.95-19.7 44.8-17.9Q44.9-19.5 45.82-20.98 46.75-22.45 48.2-23.63 49.65-24.8 51.42-25.48 53.2-26.15 55-26.15ZM92.59-37L92.59-37Q93.24-37 93.67-36.58 94.09-36.15 94.09-35.5L94.09-35.5 94.09-1.5Q94.09-0.9 93.64-0.45 93.19 0 92.59 0L92.59 0Q91.89 0 91.49-0.45 91.09-0.9 91.09-1.5L91.09-1.5 91.09-7.45 91.94-8.15Q91.94-6.75 91.19-5.23 90.44-3.7 89.07-2.4 87.69-1.1 85.87-0.3 84.04 0.5 81.89 0.5L81.89 0.5Q78.59 0.5 75.92-1.25 73.24-3 71.69-6 70.14-9 70.14-12.85L70.14-12.85Q70.14-16.65 71.69-19.68 73.24-22.7 75.89-24.43 78.54-26.15 81.84-26.15L81.84-26.15Q83.94-26.15 85.79-25.4 87.64-24.65 89.07-23.35 90.49-22.05 91.32-20.38 92.14-18.7 92.14-16.9L92.14-16.9 91.09-17.65 91.09-35.5Q91.09-36.1 91.49-36.55 91.89-37 92.59-37ZM82.19-2.3L82.19-2.3Q84.84-2.3 86.89-3.68 88.94-5.05 90.12-7.43 91.29-9.8 91.29-12.85L91.29-12.85Q91.29-15.85 90.12-18.23 88.94-20.6 86.89-21.98 84.84-23.35 82.19-23.35L82.19-23.35Q79.59-23.35 77.52-21.98 75.44-20.6 74.27-18.23 73.09-15.85 73.09-12.85L73.09-12.85Q73.09-9.85 74.27-7.45 75.44-5.05 77.52-3.68 79.59-2.3 82.19-2.3ZM137.19-35.2L137.19-35.2Q137.84-35.2 138.26-34.73 138.69-34.25 138.69-33.7L138.69-33.7Q138.69-33.45 138.61-33.23 138.54-33 138.39-32.75L138.39-32.75 126.64-16.6 127.24-18.55 127.24-1.5Q127.24-0.9 126.79-0.45 126.34 0 125.69 0L125.69 0Q125.04 0 124.61-0.45 124.19-0.9 124.19-1.5L124.19-1.5 124.19-18.2 124.44-17 112.99-32.65Q112.79-32.9 112.69-33.18 112.59-33.45 112.59-33.7L112.59-33.7Q112.59-34.35 113.11-34.77 113.64-35.2 114.19-35.2L114.19-35.2Q114.94-35.2 115.44-34.5L115.44-34.5 126.19-19.85 125.44-19.95 135.89-34.5Q136.39-35.2 137.19-35.2ZM165.09-12.8L165.09-12.8Q165.09-9 163.41-5.98 161.74-2.95 158.89-1.23 156.04 0.5 152.44 0.5L152.44 0.5Q148.89 0.5 146.01-1.23 143.14-2.95 141.46-5.98 139.79-9 139.79-12.8L139.79-12.8Q139.79-16.65 141.46-19.65 143.14-22.65 146.01-24.4 148.89-26.15 152.44-26.15L152.44-26.15Q156.04-26.15 158.89-24.4 161.74-22.65 163.41-19.65 165.09-16.65 165.09-12.8ZM162.09-12.8L162.09-12.8Q162.09-15.85 160.84-18.23 159.59-20.6 157.41-21.98 155.24-23.35 152.44-23.35L152.44-23.35Q149.69-23.35 147.51-21.98 145.34-20.6 144.06-18.23 142.79-15.85 142.79-12.8L142.79-12.8Q142.79-9.75 144.06-7.4 145.34-5.05 147.51-3.68 149.69-2.3 152.44-2.3L152.44-2.3Q155.24-2.3 157.41-3.68 159.59-5.05 160.84-7.4 162.09-9.75 162.09-12.8ZM190.33-25.4L190.33-25.4Q190.98-25.4 191.41-24.95 191.83-24.5 191.83-23.9L191.83-23.9 191.83-9.8Q191.83-4.85 189.03-2.25 186.23 0.35 181.48 0.35L181.48 0.35Q176.78 0.35 174.01-2.25 171.23-4.85 171.23-9.8L171.23-9.8 171.23-23.9Q171.23-24.5 171.66-24.95 172.08-25.4 172.73-25.4L172.73-25.4Q173.38-25.4 173.81-24.95 174.23-24.5 174.23-23.9L174.23-23.9 174.23-9.8Q174.23-6.2 176.16-4.33 178.08-2.45 181.48-2.45L181.48-2.45Q184.93-2.45 186.88-4.33 188.83-6.2 188.83-9.8L188.83-9.8 188.83-23.9Q188.83-24.5 189.23-24.95 189.63-25.4 190.33-25.4ZM201.18 0L201.18 0Q200.48 0 200.08-0.45 199.68-0.9 199.68-1.5L199.68-1.5 199.68-23.9Q199.68-24.5 200.11-24.95 200.53-25.4 201.18-25.4L201.18-25.4Q201.83-25.4 202.26-24.95 202.68-24.5 202.68-23.9L202.68-23.9 202.68-16.4 201.93-16.25Q202.08-18 202.81-19.73 203.53-21.45 204.78-22.9 206.03-24.35 207.76-25.25 209.48-26.15 211.63-26.15L211.63-26.15Q212.53-26.15 213.38-25.78 214.23-25.4 214.23-24.55L214.23-24.55Q214.23-23.8 213.83-23.4 213.43-23 212.88-23L212.88-23Q212.43-23 211.91-23.25 211.38-23.5 210.53-23.5L210.53-23.5Q209.13-23.5 207.73-22.68 206.33-21.85 205.18-20.45 204.03-19.05 203.36-17.32 202.68-15.6 202.68-13.85L202.68-13.85 202.68-1.5Q202.68-0.9 202.23-0.45 201.78 0 201.18 0ZM249.03 0.5L249.03 0.5Q245.18 0.5 241.88-0.85 238.58-2.2 236.15-4.63 233.73-7.05 232.38-10.35 231.03-13.65 231.03-17.5L231.03-17.5Q231.03-21.35 232.38-24.65 233.73-27.95 236.15-30.38 238.58-32.8 241.88-34.15 245.18-35.5 249.03-35.5L249.03-35.5Q251.68-35.5 254.15-34.88 256.63-34.25 258.58-33L258.58-33Q258.93-32.75 259.1-32.43 259.28-32.1 259.28-31.75L259.28-31.75Q259.28-31.05 258.83-30.63 258.38-30.2 257.88-30.2L257.88-30.2Q257.63-30.2 257.4-30.28 257.18-30.35 256.98-30.45L256.98-30.45Q255.28-31.4 253.28-31.95 251.28-32.5 249.03-32.5L249.03-32.5Q244.73-32.5 241.38-30.55 238.03-28.6 236.13-25.2 234.23-21.8 234.23-17.5L234.23-17.5Q234.23-13.2 236.13-9.8 238.03-6.4 241.38-4.45 244.73-2.5 249.03-2.5L249.03-2.5Q251.28-2.5 253.55-3.15 255.83-3.8 257.48-4.9L257.48-4.9 257.23-3.85 257.23-15.35 257.98-14.65 249.33-14.65Q248.68-14.65 248.23-15.1 247.78-15.55 247.78-16.15L247.78-16.15Q247.78-16.85 248.23-17.25 248.68-17.65 249.33-17.65L249.33-17.65 258.88-17.65Q259.53-17.65 259.95-17.23 260.38-16.8 260.38-16.15L260.38-16.15 260.38-4.1Q260.38-3.7 260.18-3.35 259.98-3 259.63-2.75L259.63-2.75Q257.43-1.25 254.7-0.38 251.98 0.5 249.03 0.5ZM288.77-25.55L288.77-25.55Q289.42-25.55 289.85-25.1 290.27-24.65 290.27-24L290.27-24 290.27-1.5Q290.27-0.9 289.82-0.45 289.37 0 288.77 0L288.77 0Q288.07 0 287.67-0.45 287.27-0.9 287.27-1.5L287.27-1.5 287.27-7.45 288.12-7.85Q288.12-6.45 287.35-5 286.57-3.55 285.22-2.3 283.87-1.05 282.05-0.28 280.22 0.5 278.07 0.5L278.07 0.5Q274.72 0.5 272.05-1.25 269.37-3 267.85-6.05 266.32-9.1 266.32-12.9L266.32-12.9Q266.32-16.8 267.87-19.78 269.42-22.75 272.07-24.45 274.72-26.15 278.02-26.15L278.02-26.15Q280.17-26.15 282.05-25.4 283.92-24.65 285.32-23.35 286.72-22.05 287.52-20.38 288.32-18.7 288.32-16.9L288.32-16.9 287.27-17.65 287.27-24Q287.27-24.65 287.67-25.1 288.07-25.55 288.77-25.55ZM278.37-2.3L278.37-2.3Q281.02-2.3 283.07-3.68 285.12-5.05 286.3-7.48 287.47-9.9 287.47-12.9L287.47-12.9Q287.47-15.85 286.3-18.2 285.12-20.55 283.07-21.95 281.02-23.35 278.37-23.35L278.37-23.35Q275.77-23.35 273.7-22 271.62-20.65 270.45-18.3 269.27-15.95 269.27-12.9L269.27-12.9Q269.27-9.9 270.42-7.48 271.57-5.05 273.65-3.68 275.72-2.3 278.37-2.3ZM309.62-25.75L309.62-25.75Q312.72-25.75 314.92-24.13 317.12-22.5 317.92-19.3L317.92-19.3 317.22-19.1 317.52-20Q318.17-21.5 319.69-22.83 321.22-24.15 323.17-24.95 325.12-25.75 327.12-25.75L327.12-25.75Q330.27-25.75 332.19-24.4 334.12-23.05 335-20.78 335.87-18.5 335.87-15.65L335.87-15.65 335.87-1.5Q335.87-0.9 335.45-0.45 335.02 0 334.37 0L334.37 0Q333.72 0 333.3-0.45 332.87-0.9 332.87-1.5L332.87-1.5 332.87-15.5Q332.87-17.55 332.22-19.25 331.57-20.95 330.17-21.95 328.77-22.95 326.42-22.95L326.42-22.95Q324.37-22.95 322.5-21.95 320.62-20.95 319.44-19.25 318.27-17.55 318.27-15.5L318.27-15.5 318.27-1.5Q318.27-0.9 317.85-0.45 317.42 0 316.77 0L316.77 0Q316.12 0 315.69-0.45 315.27-0.9 315.27-1.5L315.27-1.5 315.27-15.65Q315.27-17.7 314.67-19.35 314.07-21 312.72-21.98 311.37-22.95 309.07-22.95L309.07-22.95Q307.02-22.95 305.19-21.98 303.37-21 302.25-19.35 301.12-17.7 301.12-15.65L301.12-15.65 301.12-1.5Q301.12-0.9 300.67-0.45 300.22 0 299.62 0L299.62 0Q298.92 0 298.52-0.45 298.12-0.9 298.12-1.5L298.12-1.5 298.12-23.9Q298.12-24.5 298.55-24.95 298.97-25.4 299.62-25.4L299.62-25.4Q300.27-25.4 300.69-24.95 301.12-24.5 301.12-23.9L301.12-23.9 301.12-19.25 299.77-17.4Q299.92-18.9 300.75-20.4 301.57-21.9 302.92-23.1 304.27-24.3 306-25.03 307.72-25.75 309.62-25.75ZM355.07 0.5L355.07 0.5Q351.22 0.5 348.27-1.15 345.32-2.8 343.67-5.75 342.02-8.7 342.02-12.65L342.02-12.65Q342.02-16.9 343.69-19.9 345.37-22.9 348.04-24.53 350.72-26.15 353.72-26.15L353.72-26.15Q355.92-26.15 357.99-25.38 360.07-24.6 361.67-23.08 363.27-21.55 364.27-19.35 365.27-17.15 365.32-14.25L365.32-14.25Q365.32-13.65 364.87-13.23 364.42-12.8 363.82-12.8L363.82-12.8 343.77-12.8 343.17-15.5 362.87-15.5 362.22-14.9 362.22-15.9Q361.97-18.25 360.67-19.9 359.37-21.55 357.54-22.4 355.72-23.25 353.72-23.25L353.72-23.25Q352.22-23.25 350.64-22.65 349.07-22.05 347.79-20.78 346.52-19.5 345.72-17.53 344.92-15.55 344.92-12.85L344.92-12.85Q344.92-9.9 346.12-7.5 347.32-5.1 349.57-3.7 351.82-2.3 355.02-2.3L355.02-2.3Q356.72-2.3 358.12-2.8 359.52-3.3 360.59-4.13 361.67-4.95 362.37-5.85L362.37-5.85Q362.92-6.3 363.42-6.3L363.42-6.3Q363.97-6.3 364.34-5.9 364.72-5.5 364.72-5L364.72-5Q364.72-4.4 364.22-3.95L364.22-3.95Q362.72-2.15 360.32-0.83 357.92 0.5 355.07 0.5ZM370.07-4.05L370.07-4.05Q369.67-4.65 369.69-5.23 369.72-5.8 370.32-6.15L370.32-6.15Q370.72-6.5 371.24-6.45 371.77-6.4 372.22-5.95L372.22-5.95Q373.57-4.2 375.49-3.13 377.42-2.05 380.07-2.05L380.07-2.05Q381.47-2.05 382.84-2.53 384.22-3 385.12-3.98 386.02-4.95 386.02-6.45L386.02-6.45Q386.02-8 385.12-8.95 384.22-9.9 382.79-10.45 381.37-11 379.77-11.4L379.77-11.4Q378.07-11.85 376.47-12.43 374.87-13 373.64-13.88 372.42-14.75 371.67-16 370.92-17.25 370.92-19.05L370.92-19.05Q370.92-21.15 372.07-22.75 373.22-24.35 375.19-25.25 377.17-26.15 379.67-26.15L379.67-26.15Q380.92-26.15 382.37-25.83 383.82-25.5 385.22-24.75 386.62-24 387.72-22.7L387.72-22.7Q388.17-22.25 388.17-21.68 388.17-21.1 387.67-20.65L387.67-20.65Q387.27-20.35 386.74-20.35 386.22-20.35 385.87-20.75L385.87-20.75Q384.67-22.1 383.02-22.8 381.37-23.5 379.47-23.5L379.47-23.5Q378.02-23.5 376.74-23.03 375.47-22.55 374.62-21.6 373.77-20.65 373.77-19.1L373.77-19.1Q373.87-17.65 374.79-16.75 375.72-15.85 377.24-15.25 378.77-14.65 380.67-14.15L380.67-14.15Q382.27-13.75 383.74-13.2 385.22-12.65 386.34-11.83 387.47-11 388.14-9.75 388.82-8.5 388.82-6.6L388.82-6.6Q388.82-4.4 387.59-2.8 386.37-1.2 384.32-0.35 382.27 0.5 379.77 0.5L379.77 0.5Q377.07 0.5 374.54-0.55 372.02-1.6 370.07-4.05ZM395.66-9.8L395.66-9.8Q394.71-9.8 394.61-10.85L394.61-10.85 394.06-32.95Q394.06-33.85 394.41-34.43 394.76-35 395.66-35L395.66-35Q396.51-35 396.89-34.43 397.26-33.85 397.21-32.95L397.21-32.95 396.66-10.85Q396.61-9.8 395.66-9.8ZM395.81 0L395.51 0Q394.66 0 394.19-0.53 393.71-1.05 393.71-1.9L393.71-1.9 393.71-3Q393.71-3.9 394.19-4.4 394.66-4.9 395.51-4.9L395.51-4.9 395.81-4.9Q396.71-4.9 397.14-4.4 397.56-3.9 397.56-3L397.56-3 397.56-1.9Q397.56-1.05 397.14-0.53 396.71 0 395.81 0L395.81 0Z" opacity="1" transform="matrix(1,0,0,1,0,0)" fill="#000000" class="slogan-text-1" data-fill-palette-color="secondary" id="text-1"></path></svg></g></svg></g></svg></g></svg></g></svg></g><defs></defs></svg><rect width="395.52" height="127.1555201033606" fill="none" stroke="none" visibility="hidden"></rect></g></svg></g></svg>